<?xml version="1.0" standalone="no"?>
<!DOCTYPE svg PUBLIC "-//W3C//DTD SVG 20010904//EN"
 "http://www.w3.org/TR/2001/REC-SVG-20010904/DTD/svg10.dtd">
<svg version="1.0" xmlns="http://www.w3.org/2000/svg"
 width="260.000000pt" height="260.000000pt" viewBox="0 0 260.000000 260.000000"
 preserveAspectRatio="xMidYMid meet">
<metadata>
Created by potrace 1.14, written by Peter Selinger 2001-2017
</metadata>
<g transform="translate(0.000000,260.000000) scale(0.100000,-0.100000)"
fill="#000000" stroke="none">
<path d="M1075 2540 c-542 -108 -936 -514 -1022 -1055 -9 -61 -10 -314 -1
-372 43 -263 158 -495 340 -684 191 -199 428 -324 708 -374 75 -14 325 -13
405 1 493 86 893 451 1015 928 29 116 31 133 35 291 5 278 -58 497 -209 725
-66 97 -190 234 -261 286 -22 16 -42 31 -45 34 -17 18 -147 95 -210 124 -78
35 -215 80 -285 92 -22 4 -49 9 -60 11 -11 3 -87 6 -170 8 -112 2 -173 -2
-240 -15z"/>
</g>
</svg>
